PathFileType	4	(X/Y/Z)	E:\Qualisys_Data\Carbon_Farble_Plate\Data\Amateur_Runner\S2\T1\S2T1V21_c3d.trc
DataRate	CameraRate	NumFrames	NumMarkers	Units	OrigDataRate	OrigDataStartFrame	OrigNumFrames
200.000000	200.000000	4	39	mm	200.000000	157	315
Frame#	Time	LSHO			RSHO			LICST			RICST			LASIS			LHEEL			RASIS			LTROC			RTROC			SACR			LTH1			LSK4			LTH2			LTH3			RHM5			LSK2			LTH4			RTH1			LTOE			RTH2			RTH3			RTH4			LLEP			RLEP			LSK1			LSK3			RSK1			LHM5			RSK2			LFT1			RSK3			RSK4			LLME			RLME			RTOE			RHEEL			RFT1			RFT2			LFT2			
		X1	Y1	Z1	X2	Y2	Z2	X3	Y3	Z3	X4	Y4	Z4	X5	Y5	Z5	X6	Y6	Z6	X7	Y7	Z7	X8	Y8	Z8	X9	Y9	Z9	X10	Y10	Z10	X11	Y11	Z11	X12	Y12	Z12	X13	Y13	Z13	X14	Y14	Z14	X15	Y15	Z15	X16	Y16	Z16	X17	Y17	Z17	X18	Y18	Z18	X19	Y19	Z19	X20	Y20	Z20	X21	Y21	Z21	X22	Y22	Z22	X23	Y23	Z23	X24	Y24	Z24	X25	Y25	Z25	X26	Y26	Z26	X27	Y27	Z27	X28	Y28	Z28	X29	Y29	Z29	X30	Y30	Z30	X31	Y31	Z31	X32	Y32	Z32	X33	Y33	Z33	X34	Y34	Z34	X35	Y35	Z35	X36	Y36	Z36	X37	Y37	Z37	X38	Y38	Z38	X39	Y39	Z39	

158	0.785	-22.39923858642578	1491.319458007812	-436.5987548828125	-87.65843200683594	1465.821655273438	-145.4432067871094	-92.4329833984375	1018.485595703125	-449.8911437988281	-97.22750091552734	1013.717407226562	-152.7218933105469	-43.27972030639648	964.1394653320312	-435.497802734375	-618.2936401367188	562.8358764648438	-334.2574462890625	-40.42105484008789	966.6617431640624	-180.9502868652344	-190.3972015380859	914.1795043945312	-455.5111083984375	-172.8306579589844	908.145263671875	-140.0004425048828	-189.1407165527344	1060.121704101562	-308.9873046875	-143.0514678955078	656.0741577148438	-464.2160034179688	-469.7736206054688	563.5411987304688	-434.6765441894531	-222.8284301757812	680.6805419921875	-464.5662841796875	-174.72265625	558.1946411132812	-453.5891418457031	251.7318115234375	151.8668518066406	-154.742919921875	-371.4667663574219	568.15283203125	-455.5126342773438	-254.8164520263672	586.6393432617188	-442.2919311523438	42.53202056884766	676.03125	-131.7895812988281	-734.7261352539062	353.7900390625	-386.8026428222656	-32.32858657836914	646.7788696289062	-126.2994995117188	74.71012115478516	584.13916015625	-165.2304229736328	-2.623298645019531	558.6240844726562	-156.8474273681641	-243.4549713134766	534.401611328125	-453.1495056152344	41.93486022949219	538.4629516601562	-156.4752655029297	-369.1611022949219	488.1695556640625	-455.4901428222656	-468.7365417480469	485.5333251953125	-441.2457275390625	101.2555465698242	428.8744201660156	-157.1828918457031	-740.1990356445312	421.9869384765625	-433.4498901367188	23.73710060119629	414.0093688964844	-143.5931396484375	-641.4261474609375	551.999755859375	-306.2887573242188	120.1999053955078	328.868408203125	-168.0156555175781	41.18577575683594	317.2447204589844	-157.0080871582031	-639.1631469726562	521.1249389648438	-402.1517333984375	120.4989013671875	135.5218811035156	-192.1119842529297	293.9288330078125	198.6570892333984	-213.6780242919922	73.3081283569336	95.92160034179688	-251.1472320556641	102.0182800292969	79.96451568603516	-281.249755859375	85.80965423583984	70.2357177734375	-226.40576171875	-646.8579711914062	578.0933837890625	-352.5987548828125
159	0.79	-1.457045435905457	1487.20751953125	-435.7846984863281	-66.46148681640625	1460.690673828125	-144.0328369140625	-71.96025085449219	1014.697631835938	-449.8207702636719	-77.82184600830078	1009.98779296875	-151.8868103027344	-23.25374031066895	960.309814453125	-434.567626953125	-590.2032470703125	569.2218627929688	-333.9806518554688	-20.55313110351562	963.0963745117188	-180.0451202392578	-169.5911102294922	909.8480224609376	-456.016845703125	-153.3796234130859	904.1927490234376	-139.4744415283203	-169.2263641357422	1055.970947265625	-308.4894104003906	-119.6045379638672	651.3923950195312	-464.5097351074219	-441.4827575683594	564.2921752929688	-434.8362731933594	-199.7632293701172	675.1497802734375	-464.2804870605469	-149.3559265136719	553.1963500976562	-454.7671508789062	264.5272521972656	145.2181396484375	-155.4503479003906	-343.3285217285156	565.6971435546875	-455.1280822753906	-229.7014770507812	580.1302490234375	-442.4058837890625	62.20255279541016	672.7173461914062	-132.5405731201172	-710.679443359375	362.7436828613281	-387.3225708007812	-12.57063579559326	644.0223388671875	-127.4079360961914	94.48907470703124	581.5438232421875	-165.8987579345703	17.00131416320801	555.9881591796875	-157.6436462402344	-217.0859832763672	528.253173828125	-454.8524169921875	61.29510116577148	534.9244995117188	-156.9895935058594	-343.6961975097656	485.5046081542969	-455.3647155761719	-443.1410522460938	486.3818054199219	-441.1760864257812	119.0242614746094	423.7638854980469	-157.6567077636719	-714.2886352539062	431.0570983886719	-433.5442810058594	40.79496002197266	410.5742797851562	-144.2511444091797	-613.2442626953125	558.7103881835938	-305.4683532714844	136.5171661376953	323.549560546875	-169.0137786865234	57.05907821655273	313.1630554199219	-158.0357666015625	-611.7101440429688	527.7708129882812	-401.3818359375	133.2629547119141	131.2508697509766	-193.3388214111328	307.6769714355469	191.9958190917969	-213.3267059326172	86.30489349365234	91.02840423583984	-252.9742584228516	114.9350738525391	75.28443908691406	-282.7380676269531	98.00090789794922	65.56366729736328	-227.9661560058594	-618.2600708007812	584.9342041015625	-351.9283142089844
160	0.795	19.04079437255859	1482.832275390625	-435.0320434570312	-45.68703842163086	1455.09765625	-142.6159973144531	-52.17586517333984	1010.512023925781	-449.2224731445312	-59.2661018371582	1005.534362792969	-152.4266967773438	-2.848471164703369	956.142578125	-433.8265686035156	-561.3450927734375	575.0422973632812	-333.3124389648438	-1.273966789245605	959.2418212890624	-178.8084259033203	-149.0706787109375	904.9531860351562	-456.0242614746094	-134.1405944824219	899.8897094726562	-138.7791442871094	-149.7145843505859	1051.91162109375	-308.4401245117188	-95.55686950683594	646.6746826171875	-464.8052978515625	-412.9764709472656	564.4225463867188	-434.8818664550781	-176.2943572998047	669.2603149414062	-463.7697448730469	-124.2204895019531	547.7984619140625	-456.0154724121094	276.4391479492188	138.6050262451172	-155.9796295166016	-315.1612243652344	563.52490234375	-455.6537170410156	-204.985107421875	573.79248046875	-442.5267333984375	82.29895782470703	670.1947631835938	-133.4163665771484	-685.836181640625	371.0940856933594	-387.6494140625	7.411869525909424	641.2628173828125	-128.878662109375	114.3748245239258	578.5631103515625	-166.1609649658203	37.05291366577148	553.568359375	-158.0296783447266	-191.2810211181641	522.4248657226562	-455.8966064453125	79.94441223144531	530.2296752929688	-157.6373443603516	-317.6841125488281	482.7878112792969	-455.8899536132812	-416.908203125	486.9362182617188	-441.2576293945312	136.2384643554688	418.245361328125	-158.1484985351562	-687.7098999023438	439.7614440917969	-434.0496520996094	58.13684463500977	406.5690612792969	-145.3519287109375	-585.0028076171875	564.5804443359375	-305.0078430175781	152.0966339111328	317.8682861328125	-169.7643737792969	72.05647277832031	308.7965393066406	-159.4872589111328	-583.6278076171875	534.3172607421875	-400.8813171386719	145.3997039794922	125.8271789550781	-194.7616424560547	320.4072570800781	184.2124481201172	-213.5697326660156	98.3402099609375	86.51624298095703	-254.4396362304688	126.6602935791016	70.38668060302734	-284.232177734375	109.4555969238281	60.66665267944336	-229.8457641601562	-588.8555297851562	591.317626953125	-351.0060424804688
161	0.8	40.00432968139648	1478.098388671875	-434.0577697753906	-24.65750312805176	1449.38916015625	-140.9607849121094	-31.71574783325195	1006.237854003906	-448.5453186035156	-39.71638107299805	1001.618103027344	-151.9105682373047	17.15319061279297	951.7457275390624	-433.1867980957031	-531.7709350585938	580.43359375	-332.5113830566406	17.95506286621094	954.5181884765624	-178.3010864257812	-128.5138397216797	899.554443359375	-456.4662780761719	-115.087516784668	895.754638671875	-138.5057525634766	-130.0865936279297	1047.673461914062	-307.844482421875	-71.97650909423828	641.7322998046875	-465.5232543945312	-383.8717956542969	564.340087890625	-434.9688720703125	-152.7296447753906	662.8432006835938	-463.630615234375	-98.76368713378906	542.4373168945312	-457.1622619628906	287.6510009765625	130.9203338623047	-156.7447509765625	-285.8851013183594	559.7262573242188	-456.6721496582031	-179.8218231201172	566.9979248046875	-442.6907043457031	102.1752166748047	667.103759765625	-134.5707092285156	-659.731689453125	379.1385192871094	-387.7126159667969	26.83913230895996	638.8005981445312	-130.1156005859375	134.0707702636719	575.7819213867188	-167.3294067382812	56.70433807373047	550.7022094726562	-158.7886199951172	-164.7024841308594	516.4132690429688	-456.8803405761719	99.28597259521484	526.9361572265625	-158.0155792236328	-291.1111145019531	479.7334899902344	-456.3746948242188	-390.3208312988281	486.53564453125	-441.2322082519531	153.4609222412109	412.6441040039062	-158.6802215576172	-660.02880859375	447.7102966308594	-434.140869140625	74.7187271118164	401.6961364746094	-148.0985260009766	-555.884033203125	570.517333984375	-304.0966491699219	165.6475830078125	311.6313781738281	-170.6148681640625	86.93386840820312	304.3146667480469	-161.0233612060547	-554.55078125	540.2146606445312	-399.9987182617188	156.7926483154297	120.7583923339844	-195.8873291015625	332.4773559570312	175.9828948974609	-214.3020172119141	109.1640853881836	81.72455596923828	-255.7023315429688	137.5538940429688	65.14702606201172	-285.1318359375	119.9296112060547	55.908447265625	-230.5334320068359	-559.0914306640625	596.999267578125	-350.4776000976562
